<svg width="36" height="36" viewBox="0 0 36 36" fill="none" xmlns="http://www.w3.org/2000/svg">
<path d="M31.68 25.32C31.0227 24.6679 30.1802 24.2345 29.2675 24.0788C28.3548 23.9231 27.4163 24.0527 26.58 24.45L24.855 22.74C28.3892 18.9263 31.0553 14.3924 32.67 9.44999C32.9764 8.59614 33.0338 7.67277 32.8354 6.78755C32.6371 5.90233 32.1912 5.09173 31.5497 4.45027C30.9083 3.8088 30.0977 3.3629 29.2124 3.16455C28.3272 2.9662 27.4039 3.02358 26.55 3.32999C21.6076 4.94469 17.0737 7.61082 13.26 11.145L11.55 9.41999C11.9052 8.67463 12.0486 7.84589 11.9643 7.02451C11.88 6.20314 11.5713 5.42078 11.0721 4.76311C10.5729 4.10543 9.90233 3.59779 9.13386 3.29575C8.36539 2.99372 7.52864 2.90895 6.71521 3.05071C5.90177 3.19247 5.14303 3.5553 4.52203 4.09948C3.90103 4.64366 3.44173 5.3482 3.19441 6.13598C2.94709 6.92376 2.92128 7.76441 3.11981 8.56588C3.31834 9.36734 3.73355 10.0987 4.32 10.68C5.1631 11.5241 6.30693 11.9989 7.5 12C8.1654 11.9938 8.82114 11.8401 9.42 11.55L11.145 13.26C7.61083 17.0737 4.9447 21.6076 3.33 26.55C3.04876 27.4026 3.00921 28.3165 3.21573 29.1903C3.42226 30.064 3.86678 30.8635 4.5 31.5C4.9288 31.9572 5.44375 32.325 6.01524 32.5825C6.58673 32.8399 7.20347 32.9818 7.83 33C8.37957 32.9948 8.9254 32.9089 9.45 32.745C14.3924 31.1303 18.9263 28.4642 22.74 24.93L24.45 26.655C24.0947 27.4004 23.9514 28.2291 24.0357 29.0505C24.12 29.8718 24.4287 30.6542 24.9279 31.3119C25.4271 31.9696 26.0977 32.4772 26.8661 32.7792C27.6346 33.0813 28.4714 33.166 29.2848 33.0243C30.0982 32.8825 30.857 32.5197 31.478 31.9755C32.099 31.4313 32.5583 30.7268 32.8056 29.939C33.0529 29.1512 33.0787 28.3106 32.8802 27.5091C32.6817 26.7076 32.2664 25.9762 31.68 25.395V25.32ZM8.565 8.54999C8.28453 8.83245 7.90335 8.99192 7.5053 8.99332C7.10726 8.99473 6.72495 8.83796 6.4425 8.55749C6.16004 8.27702 6.00057 7.89584 5.99916 7.49779C5.99776 7.09975 6.15453 6.71745 6.435 6.43499C6.71546 6.15253 7.09665 5.99306 7.49469 5.99166C7.89274 5.99025 8.27504 6.14702 8.5575 6.42749C8.83995 6.70796 8.99943 7.08914 9.00083 7.48719C9.00224 7.88523 8.84546 8.26753 8.565 8.54999ZM27.465 6.19499C27.6927 6.12001 27.9303 6.07956 28.17 6.07499C28.401 6.0731 28.63 6.11723 28.8438 6.20479C29.0575 6.29235 29.2517 6.4216 29.415 6.58499C29.6595 6.83884 29.8261 7.15738 29.8952 7.50295C29.9643 7.84852 29.933 8.20665 29.805 8.53499C29.0126 10.9707 27.9404 13.3063 26.61 15.495L20.505 9.38999C22.6937 8.05957 25.0293 6.98741 27.465 6.19499ZM8.535 29.805C8.20789 29.9359 7.84954 29.968 7.50439 29.8972C7.15923 29.8264 6.84245 29.6558 6.5933 29.4067C6.34416 29.1575 6.17362 28.8408 6.10281 28.4956C6.03201 28.1504 6.06406 27.7921 6.195 27.465C6.98741 25.0293 8.05957 22.6937 9.39 20.505L15.495 26.61C13.3063 27.9404 10.9707 29.0126 8.535 29.805ZM18 24.885L11.115 18C11.7834 17.0928 12.4994 16.2215 13.26 15.39L20.625 22.755C19.7882 23.5108 18.912 24.2218 18 24.885ZM22.725 20.625L15.375 13.26C16.2114 12.499 17.0876 11.783 18 11.115L24.9 18.015C24.2267 18.9226 23.5057 19.7938 22.74 20.625H22.725ZM29.55 29.625C29.4111 29.7648 29.2461 29.876 29.0642 29.952C28.8824 30.0281 28.6874 30.0676 28.4903 30.0683C28.2932 30.069 28.0979 30.0309 27.9156 29.9561C27.7332 29.8813 27.5674 29.7714 27.4275 29.6325C27.2876 29.4936 27.1765 29.3286 27.1004 29.1467C27.0244 28.9649 26.9849 28.7699 26.9842 28.5728C26.9835 28.3757 27.0216 28.1804 27.0964 27.998C27.1712 27.8157 27.2811 27.6498 27.42 27.51C27.701 27.2306 28.0812 27.0738 28.4775 27.0738C28.8738 27.0738 29.254 27.2306 29.535 27.51C29.8007 27.7843 29.9517 28.1497 29.9572 28.5315C29.9628 28.9134 29.8225 29.283 29.565 29.565L29.55 29.625Z" fill="#F35D38"/>
</svg>
