<svg width="36" height="32" viewBox="0 0 36 32" fill="none" xmlns="http://www.w3.org/2000/svg">
<g clip-path="url(#clip0)">
<path d="M35.5156 12.0001C33.7006 12.0082 27.0775 12.3851 22.1506 17.1876C20.0806 19.0394 18.8156 21.1438 18 23.1163C17.1844 21.1438 15.9194 19.0394 13.8494 17.1876C8.92252 12.3851 2.2994 12.0082 0.484397 12.0001C0.208772 11.9988 -0.00247804 12.2126 2.19598e-05 12.4888C0.014397 14.2338 0.446272 20.3726 5.54815 24.9451C10.7994 30.0588 16 30.0001 18 30.0001C20 30.0001 25.1994 30.0595 30.4519 24.9451C35.5544 20.3719 35.9856 14.2338 36 12.4888C36.0025 12.2126 35.7913 11.9988 35.5156 12.0001ZM17.9988 18.9126C18.8 17.7344 19.7238 16.6763 20.7544 15.7551C21.9475 14.5919 23.2281 13.6738 24.5206 12.9313C23.4931 8.52507 21.2881 4.61569 18.475 2.16757C18.2181 1.94382 17.7863 1.94382 17.5288 2.16757C14.7169 4.61382 12.5119 8.51944 11.4825 12.9219C12.7556 13.6532 14.0138 14.5557 15.1838 15.6963C16.2488 16.6506 17.194 17.7306 17.9988 18.9126Z" fill="#F35D38"/>
</g>
<defs>
<clipPath id="clip0">
<rect width="36" height="32" fill="white"/>
</clipPath>
</defs>
</svg>
