<svg width="36" height="36" viewBox="0 0 36 36" fill="none" xmlns="http://www.w3.org/2000/svg">
<path d="M29.52 3.73164C26.01 0.221641 19.59 0.92664 15.195 5.32164C12.795 7.72164 11.415 11.1266 11.385 13.5116C11.355 15.8816 11.775 19.3466 9.36 21.7616L3 28.1216L5.13 30.2516L11.49 23.8916C13.905 21.4766 17.37 21.8966 19.74 21.8666C22.11 21.8366 25.53 20.4566 27.93 18.0566C32.31 13.6616 33.03 7.24164 29.52 3.73164ZM15.72 17.5166C13.425 15.2216 14.145 10.6016 17.31 7.43664C20.475 4.27164 25.08 3.55164 27.39 5.84664C29.685 8.14164 28.965 12.7616 25.8 15.9266C22.635 19.0916 18.03 19.8116 15.72 17.5166ZM27.24 25.4966C28.035 25.4966 28.8 25.8116 29.355 26.3816C30.525 27.5516 30.525 29.4566 29.355 30.6266C28.8 31.1816 28.035 31.4966 27.24 31.4966C26.445 31.4966 25.68 31.1816 25.125 30.6116C23.955 29.4416 23.955 27.5366 25.125 26.3666C25.68 25.8116 26.445 25.4966 27.24 25.4966ZM27.24 22.4966C26.052 22.4943 24.89 22.8448 23.9015 23.5038C22.913 24.1628 22.1425 25.1005 21.6878 26.198C21.233 27.2956 21.1145 28.5034 21.3472 29.6684C21.5799 30.8334 22.1535 31.9031 22.995 32.7416C24.165 33.9116 25.71 34.4966 27.24 34.4966C28.428 34.499 29.59 34.1485 30.5785 33.4895C31.567 32.8305 32.3375 31.8928 32.7922 30.7952C33.247 29.6977 33.3655 28.4898 33.1328 27.3248C32.9001 26.1598 32.3265 25.0902 31.485 24.2516C30.9275 23.6945 30.2656 23.2527 29.5372 22.9516C28.8088 22.6505 28.0282 22.4959 27.24 22.4966Z" fill="#F35D38"/>
</svg>
