<svg width="36" height="36" viewBox="0 0 36 36" fill="none" xmlns="http://www.w3.org/2000/svg">
<path d="M6.3 5.2501C6.3 4.0501 7.35 2.8501 8.7 2.8501C10.05 2.8501 11.1 3.9001 11.1 5.2501C11.1 6.6001 9.9 7.5001 8.7 7.5001C7.5 7.5001 6.3 6.4501 6.3 5.2501ZM33 5.8501L32.25 4.5001L20.25 10.6501L21 12.0001L33 5.8501ZM31.2 30.4501L32.55 31.8001C31.65 32.7001 30.75 33.3001 29.7 33.7501C28.65 34.2001 27.45 34.5001 26.25 34.5001H3V32.5501H7.05L10.2 27.3001L6.75 22.5001L5.55 10.8001C5.55 9.4501 6.75 8.2501 8.1 8.2501C8.55 8.2501 9 8.4001 9.3 8.5501L14.55 12.4501L18 11.2501L19.2 13.6501L13.95 15.9001C13.8 15.7501 11.55 14.1001 9.9 12.7501L10.5 18.0001L18.45 24.7501L21 32.5501H26.25C27.15 32.5501 28.05 32.4001 28.95 31.9501C29.85 31.6501 30.6 31.0501 31.2 30.4501ZM10.5 32.5501H18L15.6 26.7001L12.15 23.8501L13.95 27.6001L10.5 32.5501Z" fill="#F35D38"/>
</svg>
